<?xml version="1.0" standalone="no"?>
<!DOCTYPE svg PUBLIC "-//W3C//DTD SVG 20010904//EN"
 "http://www.w3.org/TR/2001/REC-SVG-20010904/DTD/svg10.dtd">
<svg version="1.0" xmlns="http://www.w3.org/2000/svg"
 width="349.000000pt" height="452.000000pt" viewBox="0 0 349.000000 452.000000"
 preserveAspectRatio="xMidYMid meet">

<g transform="translate(0.000000,452.000000) scale(0.100000,-0.100000)"
fill="#000000" stroke="none">
<path d="M1780 4485 c-186 -37 -312 -131 -327 -243 -5 -40 -7 -41 -52 -48 -25
-4 -132 -2 -237 5 -190 12 -244 9 -244 -13 0 -7 -4 -6 -9 2 -7 11 -19 12 -62
3 -123 -26 -219 -96 -264 -194 -18 -37 -21 -54 -13 -64 8 -10 6 -13 -5 -13
-22 0 -32 -54 -32 -171 l0 -97 -55 -17 c-259 -81 -424 -293 -455 -582 -6 -54
-5 -63 9 -63 9 0 16 -5 16 -11 0 -5 -5 -7 -12 -3 -17 11 -2 -93 22 -160 72
-192 286 -368 500 -412 105 -22 176 -8 316 61 l109 54 75 -82 c81 -88 106
-116 143 -161 l24 -29 136 36 c263 70 597 274 859 525 97 94 114 116 81 107
-10 -3 -5 1 11 8 33 16 131 145 147 195 6 19 9 52 6 74 -5 40 -148 341 -167
353 -5 3 -10 11 -10 17 0 6 3 9 6 5 8 -8 121 69 157 107 43 46 85 142 97 223
14 88 -2 220 -28 241 -10 8 -11 12 -3 12 26 0 -53 121 -122 186 -80 76 -176
126 -282 149 -85 18 -247 18 -335 0z m380 -65 c70 -23 115 -48 169 -91 19 -16
39 -25 44 -22 6 3 7 1 3 -5 -3 -5 -3 -12 1 -14 26 -11 123 -192 110 -204 -2
-3 -18 19 -35 49 -88 156 -331 277 -554 277 -175 -1 -335 -69 -403 -173 -25
-38 -29 -28 -9 22 32 80 144 148 289 175 114 22 299 15 385 -14z m-290 -35
c-7 -8 -17 -15 -22 -15 -6 0 -5 7 2 15 7 8 17 15 22 15 6 0 5 -7 -2 -15z
m-240 -85 c0 -5 -5 -10 -11 -10 -5 0 -7 5 -4 10 3 6 8 10 11 10 2 0 4 -4 4
-10z m190 0 c0 -13 -98 -86 -134 -100 -16 -6 -32 -8 -35 -4 -3 4 -1 9 5 11 6
2 42 26 80 53 71 51 84 57 84 40z m384 -93 c86 -45 149 -111 167 -172 18 -63
18 -178 -1 -230 l-14 -40 -7 75 c-4 41 -16 96 -28 122 -35 83 -130 216 -179
254 -56 43 -30 39 62 -9z m-577 -33 c-11 -11 -93 -17 -82 -6 6 6 26 12 45 14
37 3 47 1 37 -8z m498 -13 c-3 -6 -11 -8 -17 -5 -6 4 -5 9 3 15 16 10 23 4 14
-10z m-1395 -87 c-22 -20 -40 -43 -40 -50 0 -8 -4 -14 -9 -14 -13 0 -48 -89
-60 -154 -6 -33 -11 -88 -11 -123 0 -49 -3 -63 -15 -63 -23 0 -29 46 -15 134
7 44 15 98 17 119 3 20 9 37 13 37 4 0 20 20 35 45 24 41 95 105 117 105 4 0
-10 -16 -32 -36z m140 17 c0 -12 -28 -22 -34 -12 -3 5 -3 11 1 15 9 9 33 7 33
-3z m217 -27 c-3 -3 -12 -4 -19 -1 -8 3 -5 6 6 6 11 1 17 -2 13 -5z m392 -79
c-12 -32 -36 -74 -53 -93 -27 -29 -41 -35 -84 -40 -58 -5 -66 5 -24 30 15 9
61 51 101 92 41 42 76 74 78 72 2 -2 -6 -29 -18 -61z m984 38 c-7 -2 -21 -2
-30 0 -10 3 -4 5 12 5 17 0 24 -2 18 -5z m-1223 -47 c0 -3 -4 -8 -10 -11 -5
-3 -10 -1 -10 4 0 6 5 11 10 11 6 0 10 -2 10 -4z m375 -46 c3 -5 -1 -10 -10
-10 -9 0 -13 5 -10 10 3 6 8 10 10 10 2 0 7 -4 10 -10z m-663 -9 c2 -6 16 -12
32 -15 35 -6 43 -13 30 -26 -11 -11 -76 18 -82 38 -4 14 15 17 20 3z m543 -11
c3 -5 1 -10 -4 -10 -6 0 -11 5 -11 10 0 6 2 10 4 10 3 0 8 -4 11 -10z m155
-47 c0 -13 -3 -13 -15 -3 -8 7 -15 19 -15 27 0 13 3 13 15 3 8 -7 15 -19 15
-27z m-135 4 c11 -9 14 -16 8 -20 -6 -4 -22 2 -34 13 -18 14 -20 19 -8 20 8 0
23 -6 34 -13z m-610 -17 c-3 -5 -16 -10 -28 -10 -18 0 -19 2 -7 10 20 13 43
13 35 0z m605 -31 c0 -11 -27 -12 -34 0 -3 4 -3 11 0 14 8 8 34 -3 34 -14z
m130 -49 c0 -5 -4 -10 -9 -10 -6 0 -13 5 -16 10 -3 6 1 10 9 10 9 0 16 -4 16
-10z m140 -29 c0 -14 -18 -23 -30 -16 -6 4 -8 11 -5 16 8 12 35 12 35 0z m610
-16 c0 -2 -9 -9 -20 -15 -12 -6 -20 -7 -20 -1 0 5 8 12 18 14 9 3 18 5 20 6 1
0 2 -1 2 -4z m-1240 -15 c0 -5 -4 -10 -10 -10 -5 0 -10 5 -10 10 0 6 5 10 10
10 6 0 10 -4 10 -10z m930 0 c0 -5 -4 -10 -10 -10 -5 0 -10 5 -10 10 0 6 5 10
10 10 6 0 10 -4 10 -10z m100 -30 c0 -5 -5 -10 -11 -10 -5 0 -7 5 -4 10 3 6 8
10 11 10 2 0 4 -4 4 -10z m-556 -75 c-4 -8 -8 -15 -10 -15 -2 0 -4 7 -4 15 0
8 4 15 10 15 5 0 7 -7 4 -15z m-64 -45 c0 -5 -2 -10 -4 -10 -3 0 -8 5 -11 10
-3 6 -1 10 4 10 6 0 11 -4 11 -10z m-145 -19 c-3 -6 -11 -11 -17 -11 -6 0 -6
6 2 15 14 17 26 13 15 -4z m-289 -29 c-4 -3 -14 2 -24 12 -16 18 -16 18 6 6
13 -6 21 -14 18 -18z m-669 12 c-3 -3 -12 -4 -19 -1 -8 3 -5 6 6 6 11 1 17 -2
13 -5z m923 -24 c0 -11 -8 -15 -55 -24 -28 -6 -29 -5 -11 9 10 8 22 12 27 10
4 -3 10 -1 14 5 8 13 25 13 25 0z m240 -20 c0 -5 -2 -10 -4 -10 -3 0 -8 5 -11
10 -3 6 -1 10 4 10 6 0 11 -4 11 -10z m-550 -21 c0 -6 -4 -7 -10 -4 -5 3 -10
11 -10 16 0 6 5 7 10 4 6 -3 10 -11 10 -16z m730 -13 c0 -2 -7 -6 -15 -10 -8
-3 -15 -1 -15 4 0 6 7 10 15 10 8 0 15 -2 15 -4z m-1563 -43 c-23 -40 -61
-138 -73 -192 -21 -85 -13 -238 16 -341 29 -103 93 -221 154 -286 29 -30 50
-54 48 -54 -8 0 -98 69 -116 89 -11 12 -28 21 -38 21 -10 0 -18 6 -16 13 1 6
-11 32 -28 57 -43 62 -79 137 -92 190 -11 48 -18 185 -10 210 40 125 55 162
85 209 35 56 62 91 70 91 2 0 2 -3 0 -7z m1078 -53 c3 -5 2 -10 -4 -10 -5 0
-13 5 -16 10 -3 6 -2 10 4 10 5 0 13 -4 16 -10z m1055 0 c0 -5 -5 -10 -11 -10
-5 0 -7 5 -4 10 3 6 8 10 11 10 2 0 4 -4 4 -10z m-1005 -38 c-3 -3 -11 0 -18
7 -9 10 -8 11 6 5 10 -3 15 -9 12 -12z m-1148 -48 c-3 -3 -12 -4 -19 -1 -8 3
-5 6 6 6 11 1 17 -2 13 -5z m823 -74 c0 -5 -7 -10 -16 -10 -8 0 -12 5 -9 10 3
6 10 10 16 10 5 0 9 -4 9 -10z m620 -19 c0 -6 -4 -13 -10 -16 -5 -3 -10 1 -10
9 0 9 5 16 10 16 6 0 10 -4 10 -9z m-1315 -41 c3 -5 1 -10 -4 -10 -6 0 -11 5
-11 10 0 6 2 10 4 10 3 0 8 -4 11 -10z m1329 -5 c3 -9 0 -15 -9 -15 -9 0 -12
6 -9 15 4 8 7 15 9 15 2 0 5 -7 9 -15z m-1247 -17 c-3 -8 -6 -5 -6 6 -1 11 2
17 5 13 3 -3 4 -12 1 -19z m1178 2 c3 -5 1 -10 -4 -10 -6 0 -11 5 -11 10 0 6
2 10 4 10 3 0 8 -4 11 -10z m-561 -85 c3 -8 1 -15 -3 -15 -5 0 -11 7 -15 15
-3 8 -1 15 3 15 5 0 11 -7 15 -15z m-600 -170 c-9 -14 -19 -24 -21 -21 -7 7
16 46 28 46 5 0 2 -11 -7 -25z m129 -56 c-8 -8 -16 -8 -30 0 -16 9 -14 10 12
11 21 0 26 -3 18 -11z m224 -5 c-3 -3 -12 -4 -19 -1 -8 3 -5 6 6 6 11 1 17 -2
13 -5z m-426 -13 c-12 -8 -51 -4 -51 5 0 2 15 4 33 4 22 0 28 -3 18 -9z m121
-3 c-8 -8 -20 -8 -44 -1 l-33 11 45 1 c33 1 41 -2 32 -11z m1018 -432 c0 -3
-4 -8 -10 -11 -5 -3 -10 -1 -10 4 0 6 5 11 10 11 6 0 10 -2 10 -4z"/>
<path d="M2580 3132 c0 -4 12 -17 28 -30 21 -18 22 -21 5 -12 -12 5 -25 15
-28 20 -3 6 -23 10 -44 10 -35 0 -38 -3 -63 -53 -84 -172 -280 -362 -578 -561
-206 -137 -353 -203 -550 -246 -134 -29 -130 -27 -130 -60 0 -22 5 -30 23 -33
l22 -4 -22 -2 c-25 -1 -25 6 4 -146 8 -44 33 -141 55 -215 22 -74 43 -143 45
-153 3 -10 11 -16 17 -14 7 3 13 -7 14 -26 1 -16 25 -77 52 -134 28 -57 50
-116 50 -132 0 -59 -50 -111 -107 -111 -8 0 -21 16 -29 35 -17 41 -29 45 -38
10 -8 -33 7 -62 52 -103 l37 -34 -31 6 c-18 3 -43 8 -58 12 -43 10 -32 -21 19
-56 84 -58 138 -68 405 -74 70 -2 138 -16 395 -84 171 -45 380 -104 465 -132
158 -51 186 -57 192 -40 2 5 74 18 161 30 86 11 183 30 213 41 69 26 129 78
145 126 15 46 6 120 -22 174 l-22 43 36 31 c45 39 58 65 45 89 -11 20 -20 247
-10 262 4 6 37 23 75 39 75 33 79 42 48 110 -26 57 -62 97 -152 166 -79 62
-119 110 -119 145 0 11 18 39 41 64 35 40 40 50 36 83 -3 20 -21 61 -40 90
-19 28 -49 81 -67 117 -32 64 -125 177 -142 172 -4 -1 -8 7 -8 19 0 15 -4 19
-16 15 -10 -4 -14 -2 -11 6 2 7 0 21 -5 31 -8 16 -7 17 9 9 29 -16 108 -25
153 -17 63 11 138 87 83 84 -11 0 -13 -3 -5 -6 6 -2 12 -9 12 -15 0 -6 -7 -7
-16 -4 -9 4 -28 -4 -46 -19 -21 -18 -41 -25 -72 -25 -47 0 -146 26 -146 39 0
4 35 6 78 3 77 -4 162 10 162 28 0 6 16 10 35 10 35 0 35 1 35 43 0 52 -29
101 -67 114 -30 11 -66 3 -79 -18 -4 -8 -3 -10 4 -5 7 4 12 3 12 -3 0 -5 12
-9 27 -8 19 1 31 -5 42 -25 31 -53 -19 -95 -109 -89 -44 3 -100 37 -100 62 0
10 -6 19 -12 19 -9 0 -9 3 1 9 8 5 18 31 23 57 5 27 11 61 15 76 7 37 -32 115
-68 137 -37 22 -106 25 -159 7 -40 -14 -44 -13 -98 16 -54 28 -102 42 -102 30z
m330 -55 c0 -7 9 -18 21 -25 22 -14 49 -69 49 -102 0 -17 -9 -12 -47 28 -60
61 -91 82 -121 82 -13 0 -21 4 -18 9 3 5 26 8 51 8 25 -1 45 1 45 6 0 4 5 7
10 7 6 0 10 -6 10 -13z m-190 -43 c0 -2 -13 2 -30 11 -16 9 -30 18 -30 21 0 2
14 -2 30 -11 17 -9 30 -18 30 -21z m-180 16 c0 -5 -5 -10 -11 -10 -5 0 -7 5
-4 10 3 6 8 10 11 10 2 0 4 -4 4 -10z m220 -64 c0 -3 -4 -8 -10 -11 -5 -3 -10
-1 -10 4 0 6 5 11 10 11 6 0 10 -2 10 -4z m-318 -58 c-7 -7 -12 -8 -12 -2 0
14 12 26 19 19 2 -3 -1 -11 -7 -17z m58 12 c0 -5 -4 -10 -10 -10 -5 0 -10 5
-10 10 0 6 5 10 10 10 6 0 10 -4 10 -10z m432 -72 c-7 -7 -12 -8 -12 -2 0 6 3
14 7 17 3 4 9 5 12 2 2 -3 -1 -11 -7 -17z m248 -18 c0 -5 -7 -7 -15 -4 -8 4
-15 8 -15 10 0 2 7 4 15 4 8 0 15 -4 15 -10z m-780 -24 c0 -2 -7 -7 -16 -10
-8 -3 -12 -2 -9 4 6 10 25 14 25 6z m545 -31 c0 -10 -33 -15 -52 -8 -12 5 -12
7 -1 14 15 10 53 5 53 -6z m-201 -11 c24 -9 19 -24 -9 -24 -18 0 -23 4 -19 15
7 17 7 17 28 9z m66 -4 c-20 -13 -43 -13 -35 0 3 6 16 10 28 10 18 0 19 -2 7
-10z m75 -170 c3 -5 1 -10 -4 -10 -6 0 -11 5 -11 10 0 6 2 10 4 10 3 0 8 -4
11 -10z m-225 -20 c0 -5 -5 -10 -11 -10 -5 0 -7 5 -4 10 3 6 8 10 11 10 2 0 4
-4 4 -10z m226 -49 c-9 -10 -53 -31 -98 -47 -68 -24 -99 -29 -173 -29 -49 0
-103 4 -118 8 -17 5 -26 4 -23 -2 3 -5 0 -11 -8 -14 -9 -4 -12 0 -9 11 4 15
20 17 124 17 112 0 122 2 138 22 11 13 22 18 27 13 12 -12 70 4 108 29 34 23
55 17 32 -8z m-491 -20 c-16 -14 -55 -23 -55 -13 0 12 17 20 45 21 11 1 15 -3
10 -8z m201 -120 c-4 -6 -12 -11 -18 -11 -6 0 -6 6 2 15 11 13 10 14 -4 9 -16
-6 -22 7 -9 20 10 10 37 -20 29 -33z m519 -1 c-3 -5 -18 -10 -33 -10 -21 0
-24 2 -12 10 20 13 53 13 45 0z m-99 -19 c-7 -11 -66 -20 -66 -10 0 4 12 10
28 12 15 2 31 5 35 6 5 0 6 -3 3 -8z m-126 -101 c0 -9 -31 -23 -37 -16 -3 3 1
11 8 19 14 15 29 13 29 -3z m-150 -20 c0 -5 -2 -10 -4 -10 -3 0 -8 5 -11 10
-3 6 -1 10 4 10 6 0 11 -4 11 -10z m-417 -7 c-7 -2 -19 -2 -25 0 -7 3 -2 5 12
5 14 0 19 -2 13 -5z m-1028 -57 c-11 -8 -23 -12 -28 -9 -13 8 3 23 26 23 20 0
20 0 2 -14z m1610 -6 c3 -5 1 -10 -4 -10 -6 0 -11 5 -11 10 0 6 2 10 4 10 3 0
8 -4 11 -10z m85 -15 c-7 -9 -15 -13 -17 -11 -7 7 7 26 19 26 6 0 6 -6 -2 -15z
m-270 -35 c0 -5 -5 -10 -11 -10 -5 0 -7 5 -4 10 3 6 8 10 11 10 2 0 4 -4 4
-10z m-1180 -10 c13 -8 13 -10 -2 -10 -9 0 -20 5 -23 10 -8 13 5 13 25 0z
m1560 -5 c0 -8 -4 -15 -10 -15 -5 0 -10 7 -10 15 0 8 5 15 10 15 6 0 10 -7 10
-15z m-963 -61 c-3 -3 -12 -4 -19 -1 -8 3 -5 6 6 6 11 1 17 -2 13 -5z m308
-54 c3 -5 1 -10 -4 -10 -6 0 -11 5 -11 10 0 6 2 10 4 10 3 0 8 -4 11 -10z
m453 -138 c6 -18 -15 -14 -22 4 -4 10 -1 14 6 12 6 -2 14 -10 16 -16z m40 -2
c7 -11 9 -20 4 -20 -4 0 -13 9 -20 20 -7 11 -9 20 -4 20 4 0 13 -9 20 -20z
m76 4 c25 -10 19 -21 -11 -20 -14 1 -28 7 -31 14 -4 13 16 16 42 6z m-184 -24
c0 -5 -5 -10 -11 -10 -5 0 -7 5 -4 10 3 6 8 10 11 10 2 0 4 -4 4 -10z m464
-166 c10 -25 -1 -29 -14 -5 -6 12 -7 21 -1 21 5 0 12 -7 15 -16z m141 -25
c-10 -15 -25 -10 -19 6 4 8 10 12 15 9 5 -3 7 -10 4 -15z m-802 -66 c18 -9 26
-18 20 -20 -7 -3 -25 5 -39 16 -32 25 -24 27 19 4z m-23 -17 c0 -2 -11 -6 -25
-8 -13 -3 -22 -1 -19 3 5 9 44 13 44 5z m105 -14 c-3 -3 -11 0 -18 7 -9 10 -8
11 6 5 10 -3 15 -9 12 -12z m52 -8 c-3 -3 -12 -4 -19 -1 -8 3 -5 6 6 6 11 1
17 -2 13 -5z m513 -11 c0 -16 -88 -118 -121 -140 -50 -33 -110 -35 -144 -3
-14 13 -25 29 -25 35 0 20 38 48 56 41 16 -6 15 -8 -1 -26 -20 -22 -14 -35 20
-44 39 -10 85 16 145 82 52 56 70 71 70 55z m-1010 -33 c-20 -13 -33 -13 -25
0 3 6 14 10 23 10 15 0 15 -2 2 -10z m-10 -40 c0 -5 -2 -10 -4 -10 -3 0 -8 5
-11 10 -3 6 -1 10 4 10 6 0 11 -4 11 -10z m1048 -185 c-3 -3 -9 2 -12 12 -6
14 -5 15 5 6 7 -7 10 -15 7 -18z m-1842 -170 c22 -17 12 -19 -49 -8 -26 4 -34
9 -25 14 20 13 52 11 74 -6z m61 -11 c-3 -3 -12 -4 -19 -1 -8 3 -5 6 6 6 11 1
17 -2 13 -5z m191 -26 c-2 -6 -17 -12 -33 -14 l-30 -3 25 19 c24 18 44 17 38
-2z m1487 -167 c-21 -21 -117 -50 -191 -60 -185 -23 -209 -24 -195 -7 19 22
69 34 206 46 66 7 134 15 150 20 41 11 40 11 30 1z"/>
<path d="M3085 2810 c-8 -13 15 -24 27 -12 6 6 4 11 -6 15 -8 3 -18 2 -21 -3z"/>
<path d="M1535 970 c-38 -12 -79 -55 -94 -99 -18 -54 -14 -141 7 -157 16 -13
16 -13 -1 -14 -17 0 -18 -6 -12 -67 13 -127 46 -240 75 -258 7 -4 9 66 6 212
-4 234 1 270 44 293 12 6 24 9 27 7 2 -3 -7 -92 -22 -199 -43 -313 -42 -298
-13 -298 64 0 297 -22 428 -41 203 -29 366 -73 740 -199 l325 -110 -75 76
c-69 70 -296 277 -366 333 -156 125 -317 232 -455 302 -125 63 -281 129 -291
123 -4 -3 -8 1 -8 9 0 8 -36 31 -80 52 -87 40 -176 53 -235 35z m150 -50 c3
-5 1 -10 -4 -10 -6 0 -11 5 -11 10 0 6 2 10 4 10 3 0 8 -4 11 -10z m95 -115
c-13 -14 -28 -25 -34 -25 -5 0 3 13 19 30 16 16 31 28 33 25 3 -3 -5 -16 -18
-30z m100 -53 c0 -16 -27 -45 -39 -41 -8 3 -7 11 4 27 16 22 35 30 35 14z
m170 -137 c0 -8 -9 -19 -20 -25 -17 -9 -20 -8 -20 8 0 10 3 22 7 25 12 12 33
7 33 -8z m-250 -25 c0 -5 -5 -10 -11 -10 -5 0 -7 5 -4 10 3 6 8 10 11 10 2 0
4 -4 4 -10z m25 -20 c3 -5 1 -10 -4 -10 -6 0 -11 5 -11 10 0 6 2 10 4 10 3 0
8 -4 11 -10z m-250 -160 c13 -6 15 -9 5 -9 -8 0 -22 4 -30 9 -18 12 -2 12 25
0z m1065 -210 c0 -5 -5 -10 -11 -10 -5 0 -7 5 -4 10 3 6 8 10 11 10 2 0 4 -4
4 -10z"/>
<path d="M1892 895 c2 -3 49 -18 104 -34 348 -104 659 -280 892 -505 57 -55
68 -48 24 17 -44 65 -47 76 -8 33 20 -22 37 -37 39 -35 2 2 9 24 16 48 12 40
11 45 -11 68 -13 14 -36 32 -51 40 -16 8 -26 17 -23 20 3 3 21 -4 41 -16 44
-25 45 -26 45 -3 0 14 2 15 10 2 6 -9 5 -17 -2 -21 -6 -4 -7 -9 0 -12 5 -4 16
12 25 34 l16 40 -132 64 c-154 74 -317 132 -510 181 -192 48 -495 99 -475 79z"/>
</g>
</svg>
